<mxfile host="app.diagrams.net" agent="Mozilla/5.0 (X11; Linux x86_64; rv:131.0) Gecko/20100101 Firefox/131.0" version="24.8.0">
  <diagram name="Page-1" id="26c0zEQ9aOqcjTO_m_f4">
    <mxGraphModel dx="1647" dy="991" grid="1" gridSize="10" guides="1" tooltips="1" connect="1" arrows="1" fold="1" page="1" pageScale="1" pageWidth="1100" pageHeight="850" math="0" shadow="0">
      <root>
        <mxCell id="0" />
        <mxCell id="1" parent="0" />
        <mxCell id="Yzxql-OYC8LBO3pogMly-1" value="&lt;div&gt;&lt;b&gt;Systems Engineers&lt;/b&gt;&lt;/div&gt;" style="rounded=1;whiteSpace=wrap;html=1;fontSize=20;fontFamily=Courier New;strokeWidth=3;arcSize=8;glass=0;shadow=1;fillColor=#f5f5f5;fontColor=#333333;strokeColor=#666666;" vertex="1" parent="1">
          <mxGeometry x="280" y="370" width="470" height="140" as="geometry" />
        </mxCell>
        <mxCell id="Yzxql-OYC8LBO3pogMly-2" value="&lt;div&gt;&lt;b&gt;Developers and Experts&lt;/b&gt;&lt;br&gt;&lt;/div&gt;" style="rounded=1;whiteSpace=wrap;html=1;fontSize=20;fontFamily=Courier New;strokeWidth=3;arcSize=8;glass=0;shadow=1;fillColor=#f5f5f5;fontColor=#333333;strokeColor=#666666;" vertex="1" parent="1">
          <mxGeometry x="280" y="220" width="470" height="140" as="geometry" />
        </mxCell>
        <mxCell id="Yzxql-OYC8LBO3pogMly-3" value="&lt;div&gt;&lt;b&gt;Security and Compliance&lt;/b&gt;&lt;br&gt;&lt;/div&gt;" style="rounded=1;whiteSpace=wrap;html=1;fontSize=20;fontFamily=Courier New;strokeWidth=3;arcSize=8;glass=0;shadow=1;fillColor=#f5f5f5;fontColor=#333333;strokeColor=#666666;" vertex="1" parent="1">
          <mxGeometry x="760" y="220" width="160" height="290" as="geometry" />
        </mxCell>
        <mxCell id="Yzxql-OYC8LBO3pogMly-4" value="&lt;div&gt;&lt;b&gt;Leadership and Executives&lt;/b&gt;&lt;br&gt;&lt;/div&gt;" style="rounded=1;whiteSpace=wrap;html=1;fontSize=20;fontFamily=Courier New;strokeWidth=3;arcSize=8;glass=0;shadow=1;fillColor=#f5f5f5;fontColor=#333333;strokeColor=#666666;" vertex="1" parent="1">
          <mxGeometry x="110" y="220" width="160" height="290" as="geometry" />
        </mxCell>
        <mxCell id="Yzxql-OYC8LBO3pogMly-5" value="Facilities and Supporting Infrastructure" style="rounded=1;whiteSpace=wrap;html=1;fontSize=20;fontFamily=Courier New;strokeWidth=1;arcSize=8;dashed=1;glass=0;shadow=1;fillColor=#f5f5f5;fontColor=#333333;strokeColor=#666666;" vertex="1" parent="1">
          <mxGeometry x="110" y="520" width="810" height="50" as="geometry" />
        </mxCell>
        <mxCell id="Yzxql-OYC8LBO3pogMly-7" value="Customers and Users" style="rounded=1;whiteSpace=wrap;html=1;fontSize=20;fontFamily=Courier New;strokeWidth=1;arcSize=8;dashed=1;glass=0;shadow=1;fillColor=#f5f5f5;fontColor=#333333;strokeColor=#666666;" vertex="1" parent="1">
          <mxGeometry x="110" y="160" width="810" height="50" as="geometry" />
        </mxCell>
        <mxCell id="Yzxql-OYC8LBO3pogMly-8" value="" style="endArrow=classic;html=1;rounded=0;strokeWidth=2;fillColor=#f5f5f5;strokeColor=#666666;" edge="1" parent="1">
          <mxGeometry width="50" height="50" relative="1" as="geometry">
            <mxPoint x="80" y="550" as="sourcePoint" />
            <mxPoint x="80" y="180" as="targetPoint" />
          </mxGeometry>
        </mxCell>
      </root>
    </mxGraphModel>
  </diagram>
</mxfile>
